<?xml version="1.0" encoding="UTF-8" standalone="no"?>
<!-- Created with Inkscape (http://www.inkscape.org/) -->

<svg
   width="618.59583mm"
   height="108.47916mm"
   viewBox="0 0 618.59583 108.47916"
   version="1.1"
   id="svg1"
   xml:space="preserve"
   inkscape:version="1.4 (e7c3feb100, 2024-10-09)"
   sodipodi:docname="Silvanix.svg"
   xmlns:inkscape="http://www.inkscape.org/namespaces/inkscape"
   xmlns:sodipodi="http://sodipodi.sourceforge.net/DTD/sodipodi-0.dtd"
   xmlns="http://www.w3.org/2000/svg"
   xmlns:svg="http://www.w3.org/2000/svg"><sodipodi:namedview
     id="namedview1"
     pagecolor="#ffffff"
     bordercolor="#000000"
     borderopacity="0.25"
     inkscape:showpageshadow="2"
     inkscape:pageopacity="0.0"
     inkscape:pagecheckerboard="0"
     inkscape:deskcolor="#d1d1d1"
     inkscape:document-units="mm"
     inkscape:zoom="0.37548061"
     inkscape:cx="523.32929"
     inkscape:cy="561.94646"
     inkscape:window-width="2560"
     inkscape:window-height="1531"
     inkscape:window-x="0"
     inkscape:window-y="0"
     inkscape:window-maximized="1"
     inkscape:current-layer="layer1" /><defs
     id="defs1" /><g
     inkscape:label="Layer 1"
     inkscape:groupmode="layer"
     id="layer1"
     transform="translate(148.96042,-68.262505)"
     style="display:inline"><path
       style="fill:#4d4d4d;fill-opacity:1"
       d="M 90.88166,158.52613 C 83.751281,157.0007 80.750448,153.85962 74.079966,140.93924 71.713407,136.35533 68.555578,130.28314 67.062569,127.44549 44.842983,85.214292 45.745691,88.287152 55.559106,88.287152 c 7.655139,0 5.892223,-1.69216 13.36884,12.832298 3.445786,6.69396 6.892562,13.36146 7.659502,14.81666 3.140349,5.95857 4.501264,8.59755 8.732475,16.93334 6.095088,12.00775 6.326151,12.30312 9.624562,12.30312 3.14716,0 3.32281,-0.21078 8.378515,-10.05417 2.27961,-4.43838 4.83807,-9.37947 5.68547,-10.9802 0.84739,-1.60073 5.24481,-10.1137 9.77203,-18.91771 9.82558,-19.107608 7.83096,-16.933338 15.53417,-16.933338 9.11901,0 8.97016,-0.34737 3.95772,9.23607 -1.94787,3.724178 -5.47291,10.521698 -7.83343,15.105598 -7.24113,14.06156 -18.00795,34.67619 -19.27741,36.90937 -3.96499,6.97508 -12.339575,10.68664 -20.27989,8.98794 z m -231.8574,-2.25137 c -0.86147,-0.80259 -0.90471,-11.57028 -0.0499,-12.42511 0.52321,-0.5232 0.88195,-0.52916 31.85191,-0.52916 35.541535,0 33.099312,0.14666 35.380298,-2.12467 3.485528,-3.47077 2.329012,-9.32933 -2.216597,-11.2286 -0.844462,-0.35284 -3.849328,-0.40506 -23.307204,-0.40506 -13.850557,0 -23.378817,-0.10667 -25.077767,-0.28074 -22.72837,-2.32868 -25.28481,-33.912408 -3.26918,-40.389278 2.97966,-0.8766 66.86055,-0.84036 67.739336,0.0384 0.738856,0.73886 1.0332,10.40888 0.361695,11.882668 -0.573896,1.25956 0.154828,1.23225 -32.876765,1.23225 -34.760146,0 -32.727726,-0.10418 -34.664386,1.7769 -3.96412,3.85033 -2.19294,10.55733 3.09117,11.70552 0.82617,0.17952 9.28401,0.27661 24.209367,0.27791 26.622616,0.002 26.554114,-0.003 31.103893,2.56308 16.54625,9.3333 12.810486,34.23107 -5.705761,38.02723 -3.596042,0.73725 -65.770159,0.6239 -66.570119,-0.12137 z m 96.955583,-0.009 c -1.036406,-0.81524 -1.118933,-66.431888 -0.08477,-67.403428 0.891144,-0.83718 11.368398,-0.89597 12.389052,-0.0695 0.987821,0.79988 0.987821,66.715588 0,67.515498 -0.992544,0.80373 -11.273603,0.76815 -12.304278,-0.0426 z m 46.663277,0.13962 c -8.6527367,-1.84475 -15.69732,-8.63671 -17.879196,-17.23792 -0.964555,-3.80239 -1.021299,-49.447648 -0.06258,-50.340828 0.893044,-0.832 11.1521712,-0.82914 12.2105764,0.003 0.6901621,0.54288 0.6901621,0.54288 0.7632856,23.614058 0.084561,26.67982 -0.1174412,24.77901 2.96038614,27.85683 3.09666326,3.09667 0.83310546,2.87607 30.36987586,2.95975 25.584223,0.0725 25.584223,0.0725 26.127604,0.76329 0.916268,1.16485 0.828556,11.20623 -0.106051,12.14083 -0.790909,0.79091 -50.7659076,1.01209 -54.3839,0.24069 z m 165.63342,0.009 c -10.44414,-1.92127 -18.77415,-9.66619 -21.62659,-20.10756 -5.7988,-21.22648 3.11103,-42.603708 19.65685,-47.162398 4.13543,-1.13939 42.96241,-1.13537 47.04266,0.005 10.1507,2.83665 17.06673,9.85329 19.82198,20.110338 0.97753,3.63903 0.88753,23.53297 -0.1231,27.21336 -2.60138,9.47341 -10.09251,16.94159 -19.6646,19.60433 -2.68998,0.74829 -41.30323,1.03682 -45.1072,0.33705 z m 40.8352,-13.47503 c 8.57341,-1.64037 11.15117,-6.3535 11.15117,-20.38861 0,-13.67163 -2.21784,-17.9872 -10.32974,-20.10008 -2.36853,-0.61692 -37.76827,-0.60457 -40.16748,0.014 -4.70028,1.21187 -8.39984,4.84136 -9.80254,9.61689 -0.60828,2.07089 -0.62167,18.45537 -0.017,20.77692 1.35825,5.21469 5.74695,9.29232 10.97195,10.19427 2.35965,0.40733 35.99395,0.30745 38.19362,-0.11341 z m 39.23269,13.32656 c -1.0556,-0.83033 -1.11408,-66.436448 -0.0601,-67.426608 0.93441,-0.87783 15.65256,-0.72951 19.07442,0.19222 9.49978,2.55892 17.78942,10.61962 29.38341,28.571928 12.52241,19.3899 17.17879,24.84172 22.67941,26.5537 2.90399,0.90383 2.57364,4.37493 2.57364,-27.0424 0,-27.528688 0,-27.528688 0.64943,-28.178118 0.9911,-0.9911 11.60786,-1.0225 12.53362,-0.0371 1.02073,1.08652 0.88148,66.577108 -0.14328,67.383188 -0.96735,0.76092 -15.69855,0.69904 -18.46373,-0.0776 -8.96229,-2.51705 -15.89415,-9.63854 -28.38015,-29.15655 -11.95036,-18.6807 -18.78027,-25.70737 -25.5287,-26.26412 -1.52135,-0.12552 -1.52135,-0.12552 -1.52135,27.42295 0,27.19568 -0.007,27.55524 -0.52917,28.07763 -0.82746,0.82746 -11.21175,0.81121 -12.26744,-0.0192 z m 104.04102,0.0426 c -0.98782,-0.79989 -0.98782,-66.715618 0,-67.515508 1.13366,-0.91798 11.70826,-0.75549 12.45305,0.19135 0.94498,1.20136 0.84716,66.232288 -0.10106,67.180508 -0.90593,0.90593 -11.26188,1.02636 -12.35199,0.14365 z m 24.92687,-0.19135 c -0.99386,-1.26349 -1.63635,0.0839 8.11904,-17.02712 7.30794,-12.8182 7.70017,-13.45439 9.41055,-15.26365 1.04519,-1.10561 1.04519,-1.10561 -0.13936,-2.51354 -1.79483,-2.1333 -8.61681,-13.71608 -16.97293,-28.817728 -1.13666,-2.05425 -1.19247,-2.68224 -0.31624,-3.55847 0.79661,-0.79661 12.94164,-1.04349 13.7065,-0.27863 0.20394,0.20394 3.25172,5.42938 6.77284,11.612078 9.19775,16.15022 8.47911,15.66001 22.69354,15.48019 12.28425,-0.1554 11.2923,0.62248 20.85021,-16.350568 3.15492,-5.60256 5.98088,-10.39482 6.27991,-10.64948 0.8784,-0.74807 12.83313,-0.69795 13.64368,0.0572 1.35621,1.2635 1.8829,0.0625 -6.39024,14.572258 -9.4678,16.60507 -9.13723,16.0531 -10.53868,17.59656 -1.5281,1.68292 -1.53051,1.44715 0.0328,3.20117 0.75978,0.85246 2.84301,4.18525 5.07069,8.11219 2.0796,3.66592 5.79145,10.17571 8.24857,14.46621 6.03716,10.54183 6.19485,10.05847 -3.28143,10.05847 -7.77338,0 -6.12629,1.45888 -13.70867,-12.14224 -8.7228,-15.64679 -7.74351,-14.93878 -20.82603,-15.05689 -11.79032,-0.10645 -13.69455,0.52906 -16.5401,5.51999 -0.36812,0.64566 -3.19014,5.6065 -6.27116,11.02408 -3.08103,5.41759 -5.78296,10.03126 -6.00431,10.25261 -0.83015,0.83015 -13.16094,0.56758 -13.8392,-0.29469 z"
       id="path1" /></g></svg>
